<svg xmlns="http://www.w3.org/2000/svg" width="612" height="408" viewBox="-3 -3 618 414"><g id="deeditor_bgCarrier" stroke-width="0">
  <rect id="dee_c_e" x="-3" y="-3" width="618" height="414" rx="38.4" fill="#00B4AB" strokewidth="0"/>
</g>
<g>
<path d="M 0.00 0.00 L 612.00 0.00 L 612.00 408.00 L 0.00 408.00 ZM 206.35 219.07 C208.08,220.13 210.03,220.99 210.68,221.00 C213.48,221.01 217.39,218.71 222.18,214.26 C225.46,211.21 227.46,209.96 227.75,210.79 C228.85,213.98 233.31,218.00 235.75,218.00 C239.35,218.00 246.18,213.77 249.41,209.53 C252.93,204.91 254.28,205.83 252.33,211.54 C250.59,216.64 251.70,219.34 255.31,218.80 C255.75,218.73 256.09,218.70 256.40,218.58 C257.72,218.11 258.55,216.30 263.72,205.58 C269.19,194.24 276.77,185.00 280.60,185.00 C282.77,185.00 283.00,185.43 283.00,189.35 C283.00,191.74 281.58,198.34 279.85,204.02 L 276.70 214.34 L 279.02 216.21 C281.72,218.40 283.07,217.51 284.76,212.42 C285.32,210.72 288.36,205.16 291.51,200.07 C295.93,192.92 298.03,190.47 300.67,189.37 C306.79,186.81 307.27,188.67 303.39,199.90 C299.15,212.21 301.37,220.00 309.13,220.00 C312.54,220.00 318.95,216.21 321.15,212.89 L 322.70 210.57 L 325.39 214.82 C326.86,217.16 329.18,219.58 330.53,220.20 C334.25,221.89 340.28,219.65 345.52,214.64 L 349.97 210.37 L 353.12 214.30 C355.91,217.77 356.65,218.16 359.58,217.68 C363.82,216.99 367.94,213.92 372.15,208.31 L 375.49 203.84 L 376.84 209.38 C378.78,217.32 381.60,220.00 388.00,220.00 C394.00,220.00 397.60,218.33 404.77,212.21 C410.02,207.74 420.00,194.11 420.00,191.42 C420.00,187.95 416.76,190.64 411.63,198.35 C408.57,202.95 404.28,208.32 402.09,210.30 C397.97,214.02 391.43,216.49 388.57,215.39 C385.82,214.33 384.00,209.43 384.00,203.09 C384.00,197.49 384.26,196.82 387.75,193.25 C412.61,167.89 424.04,123.62 402.91,134.55 C395.33,138.47 381.94,167.99 377.99,189.50 C376.66,196.77 373.75,202.10 367.93,207.92 C363.34,212.51 361.45,213.30 359.57,211.43 C357.26,209.12 357.64,205.03 360.94,196.83 C363.58,190.24 363.72,189.35 362.35,187.84 C360.98,186.32 361.04,186.05 362.92,185.04 C368.03,182.31 363.55,175.95 355.99,175.22 C344.55,174.13 333.83,182.61 325.53,199.32 C320.43,209.60 315.25,215.31 311.50,214.78 C308.45,214.35 308.42,208.90 311.43,200.44 C314.37,192.14 314.78,184.92 312.43,182.57 C308.92,179.06 302.17,181.70 295.68,189.11 L 290.98 194.49 L 291.62 188.37 C292.70,178.05 288.48,173.63 281.17,177.41 C278.14,178.98 269.93,187.40 268.10,190.81 C266.11,194.52 265.35,193.26 265.81,187.00 C266.23,181.13 266.19,181.00 263.70,181.00 C259.16,181.00 258.00,181.98 257.98,185.86 C257.94,192.59 249.96,205.52 242.63,210.73 C235.83,215.58 233.65,210.66 237.66,199.50 C241.24,189.56 241.43,188.38 239.59,187.67 C236.81,186.61 235.61,187.84 230.68,196.85 C223.77,209.46 218.49,214.98 213.29,214.99 C203.48,215.02 213.18,187.03 225.09,180.96 C231.44,177.71 237.00,178.73 237.00,183.14 C237.00,185.70 238.96,186.47 240.79,184.63 C242.04,183.39 242.18,182.41 241.43,180.29 C239.45,174.64 231.00,173.39 222.29,177.45 C204.83,185.57 194.72,211.98 206.35,219.07 ZM 118.25 248.45 C125.27,250.34 140.17,250.35 149.18,248.48 C180.56,241.94 200.82,215.15 189.40,195.31 C185.72,188.92 179.94,184.87 162.86,176.71 C140.91,166.23 134.99,160.51 135.01,149.80 C135.03,139.40 141.95,129.22 153.78,122.21 C173.47,110.52 197.60,110.73 206.69,122.67 C209.17,125.92 209.50,127.18 209.46,133.43 C209.42,141.38 207.24,146.71 201.37,153.25 C199.52,155.32 198.00,157.43 198.00,157.94 C198.00,160.00 199.87,159.81 203.10,157.43 C211.36,151.34 216.56,141.56 216.37,132.50 C216.21,125.10 214.18,120.24 209.53,116.16 C204.23,111.50 201.22,110.26 192.26,109.04 C167.08,105.59 138.38,118.50 128.68,137.64 C125.01,144.88 123.47,154.63 124.99,160.97 C127.52,171.49 135.26,178.09 155.50,187.01 C162.10,189.92 169.13,193.33 171.12,194.58 C184.71,203.14 185.41,217.74 172.84,230.17 C165.47,237.47 156.56,241.76 144.60,243.79 C120.73,247.82 102.00,237.68 102.00,220.73 C102.00,215.51 106.03,206.89 109.84,203.96 C111.30,202.83 113.62,201.07 115.00,200.03 C116.87,198.62 117.21,197.85 116.37,196.99 C115.52,196.12 114.25,196.34 111.25,197.87 C100.73,203.24 95.57,211.34 95.56,222.50 C95.55,235.65 103.20,244.40 118.25,248.45 ZM 432.33 232.91 C439.43,235.64 452.54,235.70 461.14,233.04 C477.63,227.94 489.00,215.25 489.00,201.95 C489.00,193.02 484.47,185.77 473.62,177.33 C464.01,169.85 454.86,160.80 453.37,157.28 C452.61,155.51 452.00,151.83 452.00,149.11 C452.00,138.78 462.64,130.40 477.13,129.31 C486.09,128.64 490.99,130.34 494.03,135.19 C496.87,139.72 496.10,144.78 491.51,151.68 C486.80,158.77 487.43,161.42 492.80,157.16 C497.36,153.55 502.00,144.84 502.00,139.88 C502.00,135.00 498.43,129.98 493.03,127.25 C487.22,124.32 474.02,124.10 465.81,126.82 C450.51,131.86 442.97,140.76 443.02,153.72 C443.06,164.25 447.41,170.53 463.77,183.69 C475.58,193.19 479.00,198.21 479.00,206.02 C479.00,210.66 478.45,212.49 475.88,216.37 C469.63,225.80 460.76,230.25 448.00,230.36 C437.14,230.46 431.43,228.12 427.32,221.91 C424.89,218.24 424.48,216.60 424.39,210.12 C424.32,205.73 423.83,202.44 423.20,202.23 C421.19,201.56 418.15,205.84 417.49,210.25 C416.02,220.00 421.84,228.87 432.33,232.91 ZM 184.43 237.89 C185.29,239.28 429.58,239.49 430.44,238.10 C432.21,235.24 422.66,235.00 305.60,235.02 C239.51,235.02 185.89,235.42 185.12,235.90 C184.36,236.38 184.05,237.28 184.43,237.89 ZM 341.12 213.24 C337.89,215.39 334.65,215.49 332.98,213.48 C331.05,211.14 332.44,201.63 335.66,195.28 C341.40,183.92 349.56,177.67 356.39,179.38 C359.35,180.13 360.94,184.38 359.19,186.90 C358.59,187.78 355.98,192.32 353.41,197.00 C348.23,206.41 345.04,210.63 341.12,213.24 ZM 397.90 174.05 C395.63,177.87 392.01,182.91 389.86,185.25 L 385.95 189.50 L 386.46 185.81 C388.02,174.47 400.28,144.91 405.42,140.08 C414.58,131.47 409.46,154.59 397.90,174.05 ZM 460.00 238.09 C460.00,238.67 468.14,238.93 480.75,238.77 C498.41,238.54 501.50,238.28 501.50,237.00 C501.50,235.74 498.97,235.45 486.00,235.19 C470.84,234.88 460.00,236.09 460.00,238.09 Z" fill="#f7f1f1"/>
<path d="M 118.25 248.45 C103.20,244.40 95.55,235.65 95.56,222.50 C95.57,211.34 100.73,203.24 111.25,197.87 C114.25,196.34 115.52,196.12 116.37,196.99 C117.21,197.85 116.87,198.62 115.00,200.03 C113.62,201.07 111.30,202.83 109.84,203.96 C106.03,206.89 102.00,215.51 102.00,220.73 C102.00,237.68 120.73,247.82 144.60,243.79 C156.56,241.76 165.47,237.47 172.84,230.17 C185.41,217.74 184.71,203.14 171.12,194.58 C169.13,193.33 162.10,189.92 155.50,187.01 C135.26,178.09 127.52,171.49 124.99,160.97 C123.47,154.63 125.01,144.88 128.68,137.64 C138.38,118.50 167.08,105.59 192.26,109.04 C201.22,110.26 204.23,111.50 209.53,116.16 C214.18,120.24 216.21,125.10 216.37,132.50 C216.56,141.56 211.36,151.34 203.10,157.43 C199.87,159.81 198.00,160.00 198.00,157.94 C198.00,157.43 199.52,155.32 201.37,153.25 C207.24,146.71 209.42,141.38 209.46,133.43 C209.50,127.18 209.17,125.92 206.69,122.67 C197.60,110.73 173.47,110.52 153.78,122.21 C141.95,129.22 135.03,139.40 135.01,149.80 C134.99,160.51 140.91,166.23 162.86,176.71 C179.94,184.87 185.72,188.92 189.40,195.31 C200.82,215.15 180.56,241.94 149.18,248.48 C140.17,250.35 125.27,250.34 118.25,248.45 ZM 184.43 237.89 C184.05,237.28 184.36,236.38 185.12,235.90 C185.89,235.42 239.51,235.02 305.60,235.02 C422.66,235.00 432.21,235.24 430.44,238.10 C429.58,239.49 185.29,239.28 184.43,237.89 ZM 460.00 238.09 C460.00,236.09 470.84,234.88 486.00,235.19 C498.97,235.45 501.50,235.74 501.50,237.00 C501.50,238.28 498.41,238.54 480.75,238.77 C468.14,238.93 460.00,238.67 460.00,238.09 ZM 432.33 232.91 C421.84,228.87 416.02,220.00 417.49,210.25 C418.15,205.84 421.19,201.56 423.20,202.23 C423.83,202.44 424.32,205.73 424.39,210.12 C424.48,216.60 424.89,218.24 427.32,221.91 C431.43,228.12 437.14,230.46 448.00,230.36 C460.76,230.25 469.63,225.80 475.88,216.37 C478.45,212.49 479.00,210.66 479.00,206.02 C479.00,198.21 475.58,193.19 463.77,183.69 C447.41,170.53 443.06,164.25 443.02,153.72 C442.97,140.76 450.51,131.86 465.81,126.82 C474.02,124.10 487.22,124.32 493.03,127.25 C498.43,129.98 502.00,135.00 502.00,139.88 C502.00,144.84 497.36,153.55 492.80,157.16 C487.43,161.42 486.80,158.77 491.51,151.68 C496.10,144.78 496.87,139.72 494.03,135.19 C490.99,130.34 486.09,128.64 477.13,129.31 C462.64,130.40 452.00,138.78 452.00,149.11 C452.00,151.83 452.61,155.51 453.37,157.28 C454.86,160.80 464.01,169.85 473.62,177.33 C484.47,185.77 489.00,193.02 489.00,201.95 C489.00,215.25 477.63,227.94 461.14,233.04 C452.54,235.70 439.43,235.64 432.33,232.91 ZM 206.35 219.07 C194.72,211.98 204.83,185.57 222.29,177.45 C231.00,173.39 239.45,174.64 241.43,180.29 C242.18,182.41 242.04,183.39 240.79,184.63 C238.96,186.47 237.00,185.70 237.00,183.14 C237.00,178.73 231.44,177.71 225.09,180.96 C213.18,187.03 203.48,215.02 213.29,214.99 C218.49,214.98 223.77,209.46 230.68,196.85 C235.61,187.84 236.81,186.61 239.59,187.67 C241.43,188.38 241.24,189.56 237.66,199.50 C233.65,210.66 235.83,215.58 242.63,210.73 C249.96,205.52 257.94,192.59 257.98,185.86 C258.00,181.98 259.16,181.00 263.70,181.00 C266.19,181.00 266.23,181.13 265.81,187.00 C265.35,193.26 266.11,194.52 268.10,190.81 C269.93,187.40 278.14,178.98 281.17,177.41 C288.48,173.63 292.70,178.05 291.62,188.37 L 290.98 194.49 L 295.68 189.11 C302.17,181.70 308.92,179.06 312.43,182.57 C314.78,184.92 314.37,192.14 311.43,200.44 C308.42,208.90 308.45,214.35 311.50,214.78 C315.25,215.31 320.43,209.60 325.53,199.32 C333.83,182.61 344.55,174.13 355.99,175.22 C363.55,175.95 368.03,182.31 362.92,185.04 C361.04,186.05 360.98,186.32 362.35,187.84 C363.72,189.35 363.58,190.24 360.94,196.83 C357.64,205.03 357.26,209.12 359.57,211.43 C361.45,213.30 363.34,212.51 367.93,207.92 C373.75,202.10 376.66,196.77 377.99,189.50 C381.94,167.99 395.33,138.47 402.91,134.55 C424.04,123.62 412.61,167.89 387.75,193.25 C384.26,196.82 384.00,197.49 384.00,203.09 C384.00,209.43 385.82,214.33 388.57,215.39 C391.43,216.49 397.97,214.02 402.09,210.30 C404.28,208.32 408.57,202.95 411.63,198.35 C416.76,190.64 420.00,187.95 420.00,191.42 C420.00,194.11 410.02,207.74 404.77,212.21 C397.60,218.33 394.00,220.00 388.00,220.00 C381.60,220.00 378.78,217.32 376.84,209.38 L 375.49 203.84 L 372.15 208.31 C367.94,213.92 363.82,216.99 359.58,217.68 C356.65,218.16 355.91,217.77 353.12,214.30 L 349.97 210.37 L 345.52 214.64 C340.28,219.65 334.25,221.89 330.53,220.20 C329.18,219.58 326.86,217.16 325.39,214.82 L 322.70 210.57 L 321.15 212.89 C318.95,216.21 312.54,220.00 309.13,220.00 C301.37,220.00 299.15,212.21 303.39,199.90 C307.27,188.67 306.79,186.81 300.67,189.37 C298.03,190.47 295.93,192.92 291.51,200.07 C288.36,205.16 285.32,210.72 284.76,212.42 C283.07,217.51 281.72,218.40 279.02,216.21 L 276.70 214.34 L 279.85 204.02 C281.58,198.34 283.00,191.74 283.00,189.35 C283.00,185.43 282.77,185.00 280.60,185.00 C276.77,185.00 269.19,194.24 263.72,205.58 C257.31,218.87 257.57,218.46 255.31,218.80 C251.70,219.34 250.59,216.64 252.33,211.54 C254.28,205.83 252.93,204.91 249.41,209.53 C246.18,213.77 239.35,218.00 235.75,218.00 C233.31,218.00 228.85,213.98 227.75,210.79 C227.46,209.96 225.46,211.21 222.18,214.26 C217.39,218.71 213.48,221.01 210.68,221.00 C210.03,220.99 208.08,220.13 206.35,219.07 ZM 341.12 213.24 C345.04,210.63 348.23,206.41 353.41,197.00 C355.98,192.32 358.59,187.78 359.19,186.90 C360.94,184.38 359.35,180.13 356.39,179.38 C349.56,177.67 341.40,183.92 335.66,195.28 C332.44,201.63 331.05,211.14 332.98,213.48 C334.65,215.49 337.89,215.39 341.12,213.24 ZM 397.90 174.05 C409.46,154.59 414.58,131.47 405.42,140.08 C400.28,144.91 388.02,174.47 386.46,185.81 L 385.95 189.50 L 389.86 185.25 C392.01,182.91 395.63,177.87 397.90,174.05 Z" fill="#faf7f7"/>
</g>
</svg>